<svg xmlns="http://www.w3.org/2000/svg" xmlns:xlink="http://www.w3.org/1999/xlink" width="500" zoomAndPan="magnify" viewBox="0 0 375 374.999991" height="500" preserveAspectRatio="xMidYMid meet" version="1.0"><defs><g/><clipPath id="c5fb7501b2"><rect x="0" width="317" y="0" height="79"/></clipPath></defs><g transform="matrix(1, 0, 0, 1, 28, 148)"><g clip-path="url(#c5fb7501b2)"><g fill="#f6f1e8" fill-opacity="1"><g transform="translate(1.130975, 65.437379)"><g><path d="M 24.109375 -45.5 C 29.359375 -45.5 33.53125 -44.4375 36.625 -42.3125 C 39.726562 -40.1875 41.28125 -36.957031 41.28125 -32.625 C 41.28125 -29.507812 40.441406 -26.75 38.765625 -24.34375 C 37.097656 -21.9375 34.757812 -20.0625 31.75 -18.71875 C 28.738281 -17.375 25.195312 -16.703125 21.125 -16.703125 L 12.546875 -16.703125 L 12.546875 -3.703125 C 12.546875 -2.535156 13.03125 -1.722656 14 -1.265625 C 14.976562 -0.804688 16.140625 -0.492188 17.484375 -0.328125 L 17.484375 0 L 0.96875 0 L 0.96875 -0.328125 C 2.3125 -0.492188 3.472656 -0.804688 4.453125 -1.265625 C 5.429688 -1.722656 5.921875 -2.535156 5.921875 -3.703125 L 5.921875 -41.796875 C 5.921875 -42.960938 5.429688 -43.773438 4.453125 -44.234375 C 3.472656 -44.691406 2.3125 -45.003906 0.96875 -45.171875 L 0.96875 -45.5 Z M 22.6875 -17.875 C 25.5 -17.875 27.789062 -18.207031 29.5625 -18.875 C 31.34375 -19.550781 32.65625 -20.773438 33.5 -22.546875 C 34.351562 -24.328125 34.78125 -26.863281 34.78125 -30.15625 C 34.78125 -31.9375 34.601562 -33.671875 34.25 -35.359375 C 33.90625 -37.046875 33.253906 -38.570312 32.296875 -39.9375 C 31.347656 -41.300781 29.941406 -42.394531 28.078125 -43.21875 C 26.210938 -44.039062 23.742188 -44.453125 20.671875 -44.453125 L 12.546875 -44.453125 L 12.546875 -19.3125 C 14.316406 -18.832031 16.066406 -18.472656 17.796875 -18.234375 C 19.535156 -17.992188 21.164062 -17.875 22.6875 -17.875 Z M 22.6875 -17.875 "/></g></g></g><g fill="#f6f1e8" fill-opacity="1"><g transform="translate(42.794552, 65.437379)"><g><path d="M 27.4375 -46.40625 C 30.8125 -46.40625 33.972656 -45.863281 36.921875 -44.78125 C 39.867188 -43.695312 42.46875 -42.125 44.71875 -40.0625 C 46.96875 -38.007812 48.722656 -35.519531 49.984375 -32.59375 C 51.242188 -29.664062 51.875 -26.382812 51.875 -22.75 C 51.875 -19.113281 51.242188 -15.832031 49.984375 -12.90625 C 48.722656 -9.976562 46.96875 -7.484375 44.71875 -5.421875 C 42.46875 -3.367188 39.867188 -1.800781 36.921875 -0.71875 C 33.972656 0.363281 30.8125 0.90625 27.4375 0.90625 C 24.050781 0.90625 20.875 0.363281 17.90625 -0.71875 C 14.9375 -1.800781 12.320312 -3.367188 10.0625 -5.421875 C 7.8125 -7.484375 6.054688 -9.976562 4.796875 -12.90625 C 3.546875 -15.832031 2.921875 -19.113281 2.921875 -22.75 C 2.921875 -26.382812 3.546875 -29.664062 4.796875 -32.59375 C 6.054688 -35.519531 7.8125 -38.007812 10.0625 -40.0625 C 12.320312 -42.125 14.9375 -43.695312 17.90625 -44.78125 C 20.875 -45.863281 24.050781 -46.40625 27.4375 -46.40625 Z M 30.03125 -0.265625 C 33.019531 -0.265625 35.628906 -1.050781 37.859375 -2.625 C 40.085938 -4.207031 41.804688 -6.394531 43.015625 -9.1875 C 44.234375 -11.988281 44.84375 -15.234375 44.84375 -18.921875 C 44.84375 -22.171875 44.34375 -25.363281 43.34375 -28.5 C 42.351562 -31.644531 40.96875 -34.472656 39.1875 -36.984375 C 37.414062 -39.492188 35.304688 -41.492188 32.859375 -42.984375 C 30.410156 -44.484375 27.710938 -45.234375 24.765625 -45.234375 C 21.773438 -45.234375 19.175781 -44.441406 16.96875 -42.859375 C 14.757812 -41.285156 13.035156 -39.109375 11.796875 -36.328125 C 10.554688 -33.554688 9.9375 -30.332031 9.9375 -26.65625 C 9.9375 -23.351562 10.4375 -20.140625 11.4375 -17.015625 C 12.4375 -13.898438 13.820312 -11.078125 15.59375 -8.546875 C 17.375 -6.015625 19.5 -4 21.96875 -2.5 C 24.4375 -1.007812 27.125 -0.265625 30.03125 -0.265625 Z M 30.03125 -0.265625 "/></g></g></g><g fill="#f6f1e8" fill-opacity="1"><g transform="translate(94.72779, 65.437379)"><g><path d="M 36.140625 -8.578125 C 37.441406 -6.847656 38.597656 -5.472656 39.609375 -4.453125 C 40.628906 -3.429688 41.640625 -2.609375 42.640625 -1.984375 C 43.640625 -1.359375 44.703125 -0.757812 45.828125 -0.1875 L 45.828125 0 L 34.0625 0 L 34.0625 -1.109375 L 21.390625 -18.65625 L 12.546875 -18.65625 L 12.546875 -3.703125 C 12.546875 -2.535156 13.03125 -1.722656 14 -1.265625 C 14.976562 -0.804688 16.140625 -0.492188 17.484375 -0.328125 L 17.484375 0 L 0.96875 0 L 0.96875 -0.328125 C 2.3125 -0.492188 3.472656 -0.804688 4.453125 -1.265625 C 5.429688 -1.722656 5.921875 -2.535156 5.921875 -3.703125 L 5.921875 -41.796875 C 5.921875 -42.960938 5.429688 -43.773438 4.453125 -44.234375 C 3.472656 -44.691406 2.3125 -45.003906 0.96875 -45.171875 L 0.96875 -45.5 L 23.796875 -45.5 C 29.035156 -45.5 33.203125 -44.5 36.296875 -42.5 C 39.398438 -40.507812 40.953125 -37.523438 40.953125 -33.546875 C 40.953125 -30.160156 39.800781 -27.222656 37.5 -24.734375 C 35.207031 -22.242188 32.066406 -20.5 28.078125 -19.5 Z M 12.546875 -21.25 C 15.921875 -20.300781 19.320312 -19.828125 22.75 -19.828125 C 25.4375 -19.828125 27.644531 -20.140625 29.375 -20.765625 C 31.113281 -21.390625 32.394531 -22.523438 33.21875 -24.171875 C 34.039062 -25.828125 34.453125 -28.148438 34.453125 -31.140625 C 34.453125 -32.785156 34.273438 -34.382812 33.921875 -35.9375 C 33.578125 -37.5 32.914062 -38.910156 31.9375 -40.171875 C 30.96875 -41.429688 29.550781 -42.4375 27.6875 -43.1875 C 25.820312 -43.945312 23.351562 -44.328125 20.28125 -44.328125 L 12.546875 -44.328125 Z M 12.546875 -21.25 "/></g></g></g><g fill="#f6f1e8" fill-opacity="1"><g transform="translate(137.691328, 65.437379)"><g><path d="M 44.203125 -45.5 L 40.046875 -32.109375 L 39.78125 -32.109375 C 40.21875 -36.523438 39.554688 -39.695312 37.796875 -41.625 C 36.046875 -43.5625 33.5 -44.53125 30.15625 -44.53125 L 25.421875 -44.53125 L 25.421875 -4.359375 C 25.421875 -2.878906 25.960938 -1.878906 27.046875 -1.359375 C 28.128906 -0.835938 29.664062 -0.492188 31.65625 -0.328125 L 31.65625 0 L 12.546875 0 L 12.546875 -0.328125 C 14.535156 -0.492188 16.070312 -0.835938 17.15625 -1.359375 C 18.238281 -1.878906 18.78125 -2.878906 18.78125 -4.359375 L 18.78125 -44.53125 L 17.296875 -44.53125 C 14.816406 -44.53125 12.742188 -44.289062 11.078125 -43.8125 C 9.410156 -43.332031 7.988281 -42.601562 6.8125 -41.625 C 5.644531 -40.65625 4.609375 -39.378906 3.703125 -37.796875 C 2.796875 -36.210938 1.863281 -34.316406 0.90625 -32.109375 L 0.65625 -32.109375 L 2.796875 -45.5 Z M 44.203125 -45.5 "/></g></g></g><g fill="#f6f1e8" fill-opacity="1"><g transform="translate(172.53012, 65.437379)"><g><path d="M 44.53125 -8.1875 C 45.300781 -6.195312 45.988281 -4.648438 46.59375 -3.546875 C 47.207031 -2.441406 47.847656 -1.648438 48.515625 -1.171875 C 49.191406 -0.691406 50.003906 -0.390625 50.953125 -0.265625 L 50.953125 0 L 32.6875 0 L 32.6875 -0.265625 C 34.207031 -0.390625 35.460938 -0.675781 36.453125 -1.125 C 37.453125 -1.582031 38.082031 -2.332031 38.34375 -3.375 C 38.601562 -4.414062 38.34375 -5.890625 37.5625 -7.796875 L 36.265625 -11.046875 L 10.859375 -11.046875 L 9.421875 -7.796875 C 8.597656 -5.929688 8.296875 -4.5 8.515625 -3.5 C 8.734375 -2.507812 9.273438 -1.785156 10.140625 -1.328125 C 11.003906 -0.878906 12.046875 -0.523438 13.265625 -0.265625 L 13.265625 0 L 1.296875 0 L 1.296875 -0.265625 C 2.210938 -0.523438 3.023438 -0.890625 3.734375 -1.359375 C 4.453125 -1.835938 5.144531 -2.570312 5.8125 -3.5625 C 6.488281 -4.5625 7.21875 -5.992188 8 -7.859375 L 22.421875 -41.140625 L 22.296875 -42.578125 L 23.328125 -43.296875 L 29.375 -47.25 C 29.375 -46.988281 29.4375 -46.609375 29.5625 -46.109375 C 29.695312 -45.617188 30.113281 -44.523438 30.8125 -42.828125 Z M 11.3125 -12.21875 L 35.8125 -12.21875 L 24.046875 -41.59375 Z M 11.3125 -12.21875 "/></g></g></g><g fill="#f6f1e8" fill-opacity="1"><g transform="translate(223.228416, 65.437379)"><g><path d="M 38.421875 -12.671875 L 38.671875 -12.546875 L 35.484375 0 L 35.09375 1.4375 L 32.890625 0 L 0.96875 0 L 0.96875 -0.328125 C 2.3125 -0.804688 3.472656 -1.410156 4.453125 -2.140625 C 5.429688 -2.878906 5.921875 -3.832031 5.921875 -5 L 5.921875 -41.796875 C 5.921875 -42.960938 5.429688 -43.773438 4.453125 -44.234375 C 3.472656 -44.691406 2.3125 -45.003906 0.96875 -45.171875 L 0.96875 -45.5 L 18.140625 -45.5 L 18.140625 -45.171875 C 16.492188 -45.003906 15.148438 -44.691406 14.109375 -44.234375 C 13.066406 -43.773438 12.546875 -42.960938 12.546875 -41.796875 L 12.546875 -1.046875 L 21.515625 -1.046875 C 24.503906 -1.046875 26.953125 -1.488281 28.859375 -2.375 C 30.765625 -3.257812 32.429688 -4.566406 33.859375 -6.296875 C 35.296875 -8.035156 36.816406 -10.160156 38.421875 -12.671875 Z M 38.421875 -12.671875 "/></g></g></g><g fill="#f6f1e8" fill-opacity="1"><g transform="translate(261.317116, 65.437379)"><g><path d="M 0.96875 0 L 0.96875 -0.328125 C 2.3125 -0.492188 3.472656 -0.804688 4.453125 -1.265625 C 5.429688 -1.722656 5.921875 -2.535156 5.921875 -3.703125 L 5.921875 -41.796875 C 5.921875 -42.960938 5.429688 -43.773438 4.453125 -44.234375 C 3.472656 -44.691406 2.3125 -45.003906 0.96875 -45.171875 L 0.96875 -45.5 L 17.484375 -45.5 L 17.484375 -45.171875 C 16.140625 -45.003906 14.976562 -44.691406 14 -44.234375 C 13.03125 -43.773438 12.546875 -42.960938 12.546875 -41.796875 L 12.546875 -3.703125 C 12.546875 -2.535156 13.03125 -1.722656 14 -1.265625 C 14.976562 -0.804688 16.140625 -0.492188 17.484375 -0.328125 L 17.484375 0 Z M 0.96875 0 "/></g></g></g><g fill="#f6f1e8" fill-opacity="1"><g transform="translate(278.216514, 65.437379)"><g><path d="M 22.296875 -25.9375 C 25.410156 -25.238281 27.941406 -24.367188 29.890625 -23.328125 C 31.847656 -22.296875 33.332031 -21.171875 34.34375 -19.953125 C 35.363281 -18.742188 36.066406 -17.507812 36.453125 -16.25 C 36.847656 -14.988281 37.046875 -13.796875 37.046875 -12.671875 C 37.046875 -10.242188 36.382812 -7.988281 35.0625 -5.90625 C 33.738281 -3.832031 31.773438 -2.175781 29.171875 -0.9375 C 26.578125 0.289062 23.375 0.90625 19.5625 0.90625 C 15.75 0.90625 12.410156 0.308594 9.546875 -0.875 C 6.691406 -2.070312 4.375 -3.515625 2.59375 -5.203125 L 8.25 -14.234375 C 7.945312 -11.328125 8.445312 -8.820312 9.75 -6.71875 C 11.050781 -4.625 12.847656 -3.023438 15.140625 -1.921875 C 17.441406 -0.816406 19.867188 -0.265625 22.421875 -0.265625 C 24.929688 -0.265625 26.867188 -0.738281 28.234375 -1.6875 C 29.609375 -2.644531 30.566406 -3.835938 31.109375 -5.265625 C 31.648438 -6.691406 31.921875 -8.097656 31.921875 -9.484375 C 31.921875 -11.703125 31.398438 -13.425781 30.359375 -14.65625 C 29.316406 -15.894531 27.851562 -16.878906 25.96875 -17.609375 C 24.082031 -18.347656 21.835938 -19.019531 19.234375 -19.625 C 15.160156 -20.625 12.007812 -21.90625 9.78125 -23.46875 C 7.550781 -25.03125 6.015625 -26.726562 5.171875 -28.5625 C 4.328125 -30.40625 3.90625 -32.195312 3.90625 -33.9375 C 3.90625 -37.695312 5.390625 -40.710938 8.359375 -42.984375 C 11.328125 -45.265625 15.363281 -46.40625 20.46875 -46.40625 C 24.195312 -46.40625 27.328125 -45.832031 29.859375 -44.6875 C 32.398438 -43.539062 34.535156 -42.144531 36.265625 -40.5 L 30.484375 -31.328125 C 30.828125 -34.273438 30.414062 -36.785156 29.25 -38.859375 C 28.082031 -40.941406 26.445312 -42.535156 24.34375 -43.640625 C 22.238281 -44.753906 19.972656 -45.3125 17.546875 -45.3125 C 15.515625 -45.3125 13.878906 -44.929688 12.640625 -44.171875 C 11.410156 -43.410156 10.523438 -42.410156 9.984375 -41.171875 C 9.441406 -39.941406 9.171875 -38.585938 9.171875 -37.109375 C 9.171875 -34.640625 9.785156 -32.679688 11.015625 -31.234375 C 12.253906 -29.785156 13.878906 -28.671875 15.890625 -27.890625 C 17.910156 -27.109375 20.046875 -26.457031 22.296875 -25.9375 Z M 22.296875 -25.9375 "/></g></g></g></g></g></svg>